<svg width="14" height="12" viewBox="0 0 14 12" fill="none" xmlns="http://www.w3.org/2000/svg">
<path d="M12.8333 4.99992C13.3855 4.99992 13.8333 5.44763 13.8333 5.99992C13.8333 6.5522 13.3855 6.99992 12.8333 6.99992V4.99992ZM1.16658 5.99992L0.459477 6.70703C0.271941 6.51949 0.166584 6.26513 0.166584 5.99992C0.166584 5.7347 0.271941 5.48035 0.459477 5.29281L1.16658 5.99992ZM4.62614 1.12615C5.01667 0.735621 5.64983 0.735621 6.04036 1.12615C6.43088 1.51667 6.43088 2.14983 6.04036 2.54036L4.62614 1.12615ZM6.04036 9.45948C6.43088 9.85 6.43088 10.4832 6.04036 10.8737C5.64983 11.2642 5.01667 11.2642 4.62614 10.8737L6.04036 9.45948ZM12.8333 6.99992H1.16658V4.99992H12.8333V6.99992ZM0.459477 5.29281L4.62614 1.12615L6.04036 2.54036L1.87369 6.70703L0.459477 5.29281ZM1.87369 5.29281L6.04036 9.45948L4.62614 10.8737L0.459477 6.70703L1.87369 5.29281Z" fill="white"/>
</svg>
