<svg width="18" height="6" viewBox="0 0 18 6" fill="none" xmlns="http://www.w3.org/2000/svg">
<path fill-rule="evenodd" clip-rule="evenodd" d="M18 5.99996C18 5.99996 18 5.99997 18 5.99998C18 5.99999 18 6 18 6H2.14577e-05C1.01252e-05 6 0 5.99999 0 5.99998C0 5.99997 9.18204e-06 5.99996 2.05145e-05 5.99996H1.57879C2.88753 5.99996 4.05803 4.44106 5.06882 3.09487C5.40572 2.64618 5.72487 2.22113 6.02549 1.88529L6.8262 0.990788C8.00873 -0.330263 9.99127 -0.330262 11.1738 0.990788L11.9745 1.88529C12.2751 2.22113 12.5943 2.64618 12.9312 3.09487C13.942 4.44107 15.1125 5.99996 16.4212 5.99996H18Z" fill="white"/>
</svg>
